Coordinates
version=1
nRows=11
nColumns=42
inDegrees=yes

Units are S.I. units (second, meters, Newtons, ...)
If the header above contains a line with 'inDegrees', this indicates whether rotational values are in degrees (yes) or radians (no).

endheader
time	pelvis_tilt	pelvis_list	pelvis_rotation	pelvis_tx	pelvis_ty	pelvis_tz	hip_flexion_r	hip_adduction_r	hip_rotation_r	knee_angle_r	knee_adduction_r	knee_angle_r_beta	ankle_angle_r	subtalar_angle_r	mtp_angle_r	hip_flexion_l	hip_adduction_l	hip_rotation_l	knee_angle_l	knee_adduction_l	knee_angle_l_beta	ankle_angle_l	subtalar_angle_l	mtp_angle_l	lumbar_extension	lumbar_bending	lumbar_rotation	arm_flex_r	arm_add_r	arm_rot_r	elbow_flex_r	pro_sup_r	wrist_flex_r	wrist_dev_r	arm_flex_l	arm_add_l	arm_rot_l	elbow_flex_l	pro_sup_l	wrist_flex_l	wrist_dev_l
      2.80000000	     11.15076539	      8.25192844	      0.76274414	      0.82457539	      0.90486479	     -0.27692801	     26.26990514	    -10.53148531	    -26.11394259	     33.18478053	    -12.29505324	      0.57918368	     15.60379047	     23.29951241	     -7.50100297	    -12.63764204	     16.50155700	    -22.21284678	     22.53680153	    -12.85757512	      0.39334139	     30.79718260	     18.91710364	     -7.50100297	    -41.56538318	     -7.85538466	     -3.30657426	      2.71522569	     -9.26720927	     13.15104644	     38.59265050	     90.00000001	      0.00000000	      0.00000000	     -7.37774938	    -14.01919254	     16.56933674	     45.43854309	     90.00000001	      0.00000000	      0.00000000
      2.81000000	     11.29032100	      8.13174459	      0.81557359	      0.83177408	      0.90480233	     -0.27631496	     25.96087247	    -10.77851247	    -27.73245656	     33.66900197	    -12.77262361	      0.58763494	     14.32448522	     24.74586799	     -7.50094542	    -13.26230578	     16.40301960	    -20.45605092	     23.09133043	    -12.44932253	      0.40301974	     30.39129056	     15.65936185	     -7.50094542	    -41.52800999	     -7.47272926	     -3.28804218	      2.93281370	     -9.36233217	     13.36153708	     37.96848342	     90.00000001	      0.00000000	      0.00000000	     -7.21265397	    -13.55152773	     16.14827298	     44.47842491	     90.00000001	      0.00000000	      0.00000000
      2.82000000	     11.45198947	      7.96599155	      0.75257721	      0.83907001	      0.90479533	     -0.27547355	     25.56641598	    -10.75435580	    -28.04121806	     34.22588964	    -12.82908061	      0.59735446	     13.90947107	     24.56215251	     -7.50093629	    -13.74393369	     16.07227686	    -20.19038797	     23.63505180	    -12.33421431	      0.41250947	     30.34621828	     15.40602554	     -7.50093629	    -41.48892932	     -7.10279825	     -3.11126582	      2.93318177	     -9.48437800	     13.34613493	     37.88724113	     90.00000001	      0.00000000	      0.00000000	     -7.35610014	    -13.34817931	     16.14767909	     44.43308161	     90.00000001	      0.00000000	      0.00000000
      2.83000000	     11.55699042	      7.77582060	      0.59409705	      0.84637985	      0.90484572	     -0.27438611	     25.25833866	    -10.52304182	    -27.99056493	     34.72768964	    -12.95644069	      0.60611253	     13.72345678	     24.54042981	     -7.50093387	    -14.16869077	     15.85860335	    -19.93389022	     24.03728857	    -12.46407238	      0.41952983	     30.26199079	     15.34845080	     -7.50093387	    -41.37969601	     -6.79544737	     -2.95550503	      2.94019722	     -9.56986098	     13.33364916	     37.82282899	     90.00000001	      0.00000000	      0.00000000	     -7.60480571	    -13.13341686	     16.19442457	     44.35534526	     90.00000001	      0.00000000	      0.00000000
      2.84000000	     11.71819248	      7.59279312	      0.48049272	      0.85360472	      0.90524017	     -0.27330512	     24.89012944	    -10.42784114	    -27.91689903	     35.37376274	    -12.84876938	      0.61738863	     13.34415036	     24.24819223	     -7.50092588	    -14.61018273	     15.40366697	    -19.68797418	     24.69039682	    -12.15804873	      0.43092872	     30.04863261	     15.03379217	     -7.50092588	    -41.38086312	     -6.46205376	     -2.79820686	      3.03016991	     -9.71690274	     13.31669034	     37.72798972	     90.00000001	      0.00000000	      0.00000000	     -7.64604378	    -12.90360920	     16.19187838	     44.27763750	     90.00000001	      0.00000000	      0.00000000
      2.85000000	     11.85292698	      7.41194933	      0.34514301	      0.86086175	      0.90576565	     -0.27213900	     24.53735267	    -10.20827712	    -27.64107635	     35.95227730	    -12.83511111	      0.62748561	     13.14518130	     23.96400574	     -7.50091917	    -15.02527689	     15.02729793	    -19.43426915	     25.25378444	    -12.00407041	      0.44076169	     29.80332323	     14.78717268	     -7.50091917	    -41.34256049	     -6.14557090	     -2.67025495	      3.10821045	     -9.81643539	     13.30599823	     37.64482152	     90.00000001	      0.00000000	      0.00000000	     -7.76794102	    -12.68515638	     16.19941659	     44.19025864	     90.00000001	      0.00000000	      0.00000000
      2.86000000	     11.89291313	      7.24484803	      0.17519104	      0.86784264	      0.90652832	     -0.27078892	     24.14314210	     -9.76802815	    -25.68470508	     36.53493175	    -12.00692563	      0.63765485	     12.73854324	     20.55123293	     -7.50086028	    -15.35175708	     14.71503057	    -18.35412903	     25.94526762	    -11.50643445	      0.45283035	     28.95107683	     12.46017950	     -7.50086028	    -41.24660370	     -5.89470420	     -2.54819357	      3.42128255	     -9.82486593	     13.42444553	     36.97010055	     90.00000001	      0.00000000	      0.00000000	     -7.70482168	    -12.32599095	     15.77618001	     43.57529333	     90.00000001	      0.00000000	      0.00000000
      2.87000000	     12.00958241	      7.09724221	     -0.02521534	      0.87508749	      0.90731146	     -0.26940857	     23.83083223	     -9.48520950	    -25.35575668	     37.07602563	    -12.08369684	      0.64709872	     12.75847431	     20.52554126	     -7.50085601	    -15.73884763	     14.41505115	    -18.14502873	     26.43750050	    -11.45406545	      0.46142143	     28.69572849	     12.49973659	     -7.50085601	    -41.20975541	     -5.66309496	     -2.42865474	      3.47339211	     -9.85888676	     13.40146987	     36.99210345	     90.00000001	      0.00000000	      0.00000000	     -7.88255446	    -12.09396653	     15.82039009	     43.58626284	     90.00000001	      0.00000000	      0.00000000
      2.88000000	     12.15167703	      6.90619283	     -0.22957948	      0.88210593	      0.90843609	     -0.26783663	     23.26219683	     -9.02914267	    -23.59734058	     37.56960078	    -11.24393362	      0.65571323	     13.15572595	     18.16762682	     -7.50080136	    -16.00932143	     13.77717212	    -18.07715092	     27.31350992	    -10.91476101	      0.47671068	     27.90623320	     12.03681154	     -7.50080136	    -41.24071957	     -5.41579865	     -2.30110561	      3.67881381	     -9.93678401	     13.29633271	     36.84017036	     90.00000001	      0.00000000	      0.00000000	     -7.90750977	    -11.91382264	     15.65467697	     43.69741167	     90.00000001	      0.00000000	      0.00000000
      2.89000000	     12.29970933	      6.73066081	     -0.42642403	      0.88924216	      0.90961343	     -0.26622542	     22.74837135	     -8.65698993	    -23.04874075	     37.91981482	    -11.08735412	      0.66182562	     13.52596326	     17.89029919	     -7.50078762	    -16.27967724	     13.21150631	    -18.07165853	     28.13074372	    -10.57110390	      0.49097410	     27.27155439	     11.97325799	     -7.50078762	    -41.25880987	     -5.18741164	     -2.18644394	      3.77752592	     -9.98730208	     13.25524376	     36.83356170	     90.00000001	      0.00000000	      0.00000000	     -7.98037218	    -11.74593472	     15.67080980	     43.74388693	     90.00000001	      0.00000000	      0.00000000
      2.90000000	     12.41829669	      6.57763274	     -0.64123359	      0.89631577	      0.91082677	     -0.26454786	     22.24414160	     -8.28704765	    -22.49220548	     38.22097326	    -10.91998919	      0.66708183	     13.96200301	     17.50154482	     -7.50077505	    -16.46905268	     12.65710591	    -18.06253074	     29.01809334	    -10.19579769	      0.50646127	     26.55938931	     11.86044822	     -7.50077505	    -41.25587236	     -5.00324305	     -2.08820264	      3.89278902	    -10.03205021	     13.20891617	     36.83004966	     90.00000001	      0.00000000	      0.00000000	     -8.04560341	    -11.60634093	     15.68015985	     43.84667414	     90.00000001	      0.00000000	      0.00000000
